<svg width="275" height="75" viewBox="0 0 275 75" fill="none" xmlns="http://www.w3.org/2000/svg">
<path d="M47.2572 19.4517L36.9261 58.9247H157.913L168.244 19.4517H47.2572Z" fill="#1F4773"/>
<path d="M65.5546 53.0223C65.5256 53.0079 65.5 52.9874 65.4794 52.9622C65.4588 52.9369 65.4437 52.9074 65.4351 52.8757C65.4265 52.8067 65.4265 52.7369 65.4351 52.6679C65.4552 52.3301 65.4552 51.9914 65.4351 51.6536C65.4351 51.287 64.9693 50.7982 64.7066 50.2727C64.4838 49.9199 64.2405 49.5812 63.978 49.2583C63.978 49.1239 63.8825 48.1096 63.5839 47.8163C63.4277 47.6265 63.2317 47.4752 63.0104 47.3736C62.7892 47.272 62.5484 47.2228 62.3059 47.2297L61.1116 47.1075C61.1116 47.1075 58.7229 44.4678 57.851 43.3802C57.2046 42.4736 56.4769 41.6308 55.6773 40.8627C55.0029 40.4167 54.2659 40.0787 53.4917 39.8606C52.8348 39.7139 51.1866 39.1884 51.1866 39.1884C51.1866 39.1884 50.5417 37.8686 50.3745 37.4164C50.2072 36.9643 49.6578 34.8256 49.6578 34.8256L49.9923 34.2146C49.9923 34.2146 49.7056 33.2003 49.6101 32.9925C49.5145 32.7847 49.1562 32.2959 49.1562 32.2959C49.1562 32.2959 49.0607 30.5728 49.0487 30.4139C49.0116 29.9809 48.9397 29.5517 48.8338 29.1307C48.7206 28.6804 48.5646 28.2424 48.368 27.8231C48.5853 27.8194 48.8001 27.7738 49.001 27.6887C49.1257 27.5454 49.2303 27.385 49.3115 27.2121C49.3115 27.2121 49.8728 26.8943 50.3267 26.5155C50.8935 26.0126 51.3809 25.4231 51.7718 24.7679C52.1062 24.1691 52.5123 23.6681 52.9065 22.947C53.3006 22.226 53.5275 21.9694 53.6111 21.725C53.6947 21.4805 53.7783 20.8817 53.0259 19.4275C52.2735 17.9732 50.9716 15.969 50.9597 15.9201C50.9477 15.8712 50.4461 15.0891 50.4461 15.0891C50.5056 14.766 50.5056 14.4345 50.4461 14.1114C50.3813 13.906 50.2931 13.7091 50.1834 13.5248C50.0762 13.2057 49.9924 12.879 49.9325 12.5472C49.7935 12.2131 49.6298 11.8903 49.4429 11.5817C49.6459 12.0339 48.6068 10.4574 47.4841 9.51641C47.1852 9.42332 46.9057 9.27413 46.66 9.07647C46.6579 9.03576 46.6579 8.99497 46.66 8.95426C46.4436 8.46278 46.3064 7.93863 46.254 7.40222C46.4677 6.53216 46.5323 5.63076 46.4451 4.7381C46.433 3.95639 46.1297 3.2089 45.5971 2.64835C45.304 2.3106 44.9458 2.03854 44.545 1.84926C44.1442 1.65998 43.7094 1.55757 43.2681 1.54848C42.4583 1.5163 41.6582 1.73802 40.975 2.18396C40.4091 2.4954 39.9032 2.90949 39.482 3.40603C39.3148 3.69933 39.1835 3.80932 39.2432 4.00485C39.3029 4.20038 39.5059 4.31037 39.5895 4.49368C39.631 4.78544 39.631 5.08181 39.5895 5.37358C39.5541 5.68604 39.6258 6.0014 39.7926 6.26569C39.8779 6.3462 39.9541 6.4364 40.0195 6.53455V6.79118C39.886 7.1581 39.7938 7.53941 39.7448 7.92772C39.7448 8.04992 39.9478 8.13547 40.1748 8.11103C40.276 8.10889 40.3765 8.09244 40.4733 8.06214C40.4733 8.06214 40.4136 8.51431 40.4733 8.56319C40.6094 8.61822 40.7491 8.66314 40.8914 8.69762L40.8197 8.94204C40.8197 8.94204 40.8197 9.13757 40.9033 9.17423C41.0518 9.21378 41.1826 9.30439 41.2736 9.43087C41.4527 9.65084 41.4408 9.8586 41.6199 9.93192C41.7991 10.0052 42.0977 9.82193 42.229 9.82193C42.229 9.9808 42.0021 10.2741 41.9304 10.433C41.8609 10.5714 41.7724 10.699 41.6677 10.8118C41.5124 11.0562 41.3213 11.3495 41.2497 11.4962C41.178 11.6428 40.8316 12.5105 40.8316 12.5105V12.8405C40.8316 12.8405 39.064 13.4637 37.583 13.9403C36.1021 14.4169 34.5016 14.9913 34.5016 14.9913L34.3464 15.1013C34.0617 14.9911 33.7649 14.9172 33.4626 14.8813H32.8057C32.7074 14.4841 32.5672 14.0989 32.3876 13.7326C32.1459 13.3797 31.7976 13.1178 31.3963 12.9871C30.8984 12.8593 30.3774 12.8593 29.8795 12.9871C29.579 13.1308 29.2877 13.294 29.0077 13.4759L28.8166 13.5859L27.8372 13.5248C27.8073 13.5293 27.7788 13.541 27.7541 13.5589C27.7295 13.5768 27.7093 13.6004 27.6953 13.6279C27.6813 13.6553 27.6739 13.6858 27.6736 13.7167C27.6734 13.7477 27.6803 13.7782 27.6939 13.8059C27.7655 13.9281 28.2672 14.0748 28.2672 14.0748H28.4224V14.1725C28.4224 14.1725 27.6342 14.1725 27.3953 14.1725C27.2497 14.1875 27.1058 14.2161 26.9653 14.2581C26.8876 14.3308 26.8405 14.4316 26.8339 14.5391V14.6858C26.8339 14.6858 26.6548 14.6858 26.6309 14.7469C26.607 14.808 26.4159 15.028 26.6309 15.1868C26.7368 15.2752 26.8585 15.3417 26.9892 15.3824C26.9892 15.3824 26.8459 15.3824 26.8339 15.5046C26.8344 15.5644 26.8487 15.6233 26.8757 15.6764C26.9027 15.7295 26.9416 15.7754 26.9892 15.8101C27.2645 15.9877 27.5675 16.1158 27.885 16.189C28.0192 16.1766 28.1515 16.1478 28.2791 16.1034V16.36H29.1271C29.4756 16.397 29.8048 16.5419 30.0706 16.7755C30.3043 16.9512 30.552 17.1066 30.8111 17.2399C31.0296 17.3895 31.2666 17.5087 31.5158 17.5943H31.7427L31.9338 17.8999H32.2443C32.6053 18.0482 32.99 18.1269 33.3789 18.1321C33.9642 18.1321 34.2628 18.2298 34.4658 18.1321C34.6104 18.0221 34.7288 17.88 34.8122 17.7165V17.631C34.8122 17.631 36.8425 17.631 37.4039 17.631C37.9652 17.631 38.8968 17.4966 39.2193 17.4355L39.8165 17.3255C39.7089 17.6091 39.6172 17.8988 39.5418 18.1932C39.4568 18.6651 39.4089 19.1432 39.3984 19.623C39.4128 19.7774 39.4128 19.9329 39.3984 20.0874L39.2671 20.4051L39.1596 20.7962C39.1522 20.9346 39.1522 21.0733 39.1596 21.2117C39.1683 21.2602 39.1683 21.3099 39.1596 21.3583C39.0983 21.4591 39.0463 21.5654 39.0043 21.6761V22.2382V22.7882C38.8145 22.8056 38.6288 22.8551 38.4549 22.9348C38.2439 23.0811 38.0513 23.2535 37.8816 23.4481L35.696 23.5459C35.5543 23.5799 35.4177 23.6334 35.2899 23.7047H34.3225C33.1253 23.6922 31.9285 23.7575 30.7394 23.9003C30.3849 24.1692 30.046 24.4589 29.7243 24.7679L29.0077 25.0368C28.8429 25.0552 28.6794 25.0838 28.518 25.1223V25.4767V25.6845C28.518 25.6845 28.0283 25.6845 27.9447 25.7578L27.5983 25.8311L27.4789 25.9778C26.6305 26.4442 25.8302 26.9969 25.0902 27.6276C24.7515 28.1609 24.5388 28.7676 24.4691 29.3996V30.1695L24.8155 30.7805L25.353 31.7215L25.4246 31.8926C25.4246 31.8926 27.5864 34.4468 28.2194 35.0578C28.8524 35.6688 32.3399 38.9074 32.6623 39.3595C33.1531 40.0754 33.5922 40.8269 33.9761 41.6081C34.5375 42.708 35.1705 43.6857 35.6124 44.3212C36.0543 44.9566 36.544 45.861 36.6514 46.0932C36.7589 46.3254 37.1292 47.2175 37.1531 47.3152C37.177 47.413 37.2606 47.6819 37.2845 47.743C37.3156 47.7884 37.361 47.8217 37.4131 47.8372C37.4652 47.8528 37.5209 47.8497 37.5711 47.8285C37.6547 47.8285 38.3713 47.6574 38.443 47.1686C38.534 46.7171 38.534 46.2513 38.443 45.7999C38.2877 45.5432 38.0847 44.1134 38.0847 43.9545C38.0847 43.7957 37.6069 42.5614 37.7502 42.1336C37.8936 41.7059 38.3832 41.1804 38.3832 40.5694C38.4386 40.1135 38.3187 39.6534 38.0488 39.2862C37.8568 39.136 37.6377 39.0263 37.4039 38.9633C37.1702 38.9004 36.9266 38.8855 36.6873 38.9196L35.7676 38.9807C35.7676 38.9807 34.1075 35.8522 33.164 34.3734C32.6233 33.5292 32.0413 32.7135 31.4202 31.9293C31.4202 31.9293 32.0771 31.3427 32.101 31.306C32.1249 31.2694 32.5787 31.7338 32.5787 31.7338L32.9848 32.2959L33.2595 32.5648L33.9164 32.2715C33.9164 32.2715 34.0597 32.5526 34.4897 32.3937C34.9197 32.2348 35.3735 32.137 35.684 32.0148C36.5259 31.6795 37.398 31.4298 38.2877 31.2694C39.1118 31.196 39.9478 31.0616 39.9837 31.0616C40.0739 31.1305 40.1484 31.2187 40.202 31.3199C40.2557 31.4212 40.2871 31.5332 40.2942 31.6482C40.2429 31.9479 40.2718 32.2561 40.3778 32.5403C40.5976 33.1652 40.972 33.7211 41.4647 34.1535C42.1279 34.7352 42.7579 35.3554 43.3517 36.011C43.655 36.0147 43.9534 36.09 44.2236 36.231L44.4505 36.4143C44.4505 36.4143 46.0151 39.2618 46.457 39.7872C46.8227 40.1878 47.1469 40.626 47.4244 41.0949C47.6275 41.4737 47.6155 41.9014 48.0455 42.1703C48.4754 42.4392 50.4342 43.0502 51.6285 43.7468C52.8229 44.4434 55.9879 46.3865 56.8 46.9486C57.6941 47.5378 58.5372 48.2042 59.3201 48.9406C59.547 49.2706 59.6784 49.735 59.977 49.9794C60.2656 50.1975 60.5336 50.443 60.7772 50.7126C61.2441 51.2984 61.6787 51.9104 62.079 52.5457C62.389 53.0576 62.6338 53.6079 62.8076 54.1833C62.9987 54.6966 63.2256 54.9166 63.2614 55.0754C63.3027 55.3884 63.3625 55.6986 63.4406 56.0042C63.503 56.1018 63.5856 56.1842 63.6826 56.2454C63.7796 56.3067 63.8887 56.3453 64.0019 56.3586C64.2169 56.3586 64.3841 56.0653 64.3841 56.0653C64.4597 56.0931 64.5409 56.101 64.6202 56.0881C64.6995 56.0753 64.7744 56.0423 64.838 55.992C64.9239 55.9405 64.9933 55.8646 65.0379 55.7735C65.0824 55.6823 65.1001 55.5799 65.0888 55.4787C65.0888 55.2954 65.0888 55.0999 65.0888 55.0265C65.0949 54.937 65.0949 54.8472 65.0888 54.7577V54.6355C65.0888 54.6355 65.1604 54.6355 65.2082 54.5499C65.2548 54.4482 65.2909 54.3417 65.3157 54.2322V54.0244C65.3157 54.0244 65.3157 54.0244 65.3157 53.9389C65.3157 53.9389 65.4351 53.9389 65.459 53.8167C65.4733 53.7647 65.4733 53.7098 65.459 53.6578C65.459 53.6578 65.459 53.6578 65.459 53.5845C65.459 53.5112 65.459 53.4256 65.459 53.389C65.459 53.3523 65.459 53.3034 65.459 53.2301C65.459 53.1568 65.5546 53.0957 65.5546 53.0223ZM47.9977 23.2037C47.7571 22.8414 47.4853 22.502 47.1856 22.1893L47.6394 21.6761C47.8305 21.4561 47.8066 20.6984 47.9141 20.6373C48.2299 20.2848 48.525 19.9134 48.7979 19.5252C48.9416 19.734 49.0971 19.9339 49.2637 20.124L50.3506 21.0039C50.3506 21.0039 49.7534 21.9327 49.7176 22.0549C49.6817 22.1771 48.989 23.3992 48.8935 23.607C48.7979 23.8147 48.3918 24.5846 48.3918 24.5846C48.3918 24.5846 48.0455 23.4725 47.938 23.2037H47.9977Z" fill="#27AAE1"/>
<path d="M35.3018 21.5169C35.0492 20.9857 34.6614 20.534 34.1791 20.2093C33.3789 19.6838 33.1639 19.5249 32.8056 19.5249C32.4473 19.5249 32.3279 19.5249 32.1368 19.7204C31.9413 19.963 31.7914 20.2407 31.6949 20.5392C31.6518 20.6364 31.5955 20.7269 31.5277 20.8081C31.4378 20.8934 31.3612 20.9923 31.3008 21.1014C31.2447 21.3832 31.2127 21.6694 31.2052 21.9568C31.2052 21.9568 31.0619 22.1768 31.0619 22.1768C30.7873 21.8795 30.4475 21.6533 30.0706 21.5169C29.7086 21.3971 29.3255 21.3596 28.9479 21.4069C28.6575 21.4258 28.3753 21.5137 28.1238 21.6635C27.989 21.5834 27.8375 21.5373 27.6819 21.5291C27.488 21.5489 27.3005 21.6114 27.1325 21.7124C26.9892 21.7857 26.7145 22.1035 26.2487 22.4823C25.7287 22.8515 25.1862 23.1862 24.6244 23.4844C24.4855 23.5017 24.3452 23.5017 24.2064 23.4844C23.5395 23.0889 22.8247 22.7849 22.0804 22.5801C21.2631 22.4813 20.4373 22.4813 19.6201 22.5801C19.3095 22.6656 18.9154 23.1056 18.7601 23.1911C18.6049 23.2767 18.2107 23.2889 17.948 23.4233C17.4234 23.6984 16.9599 24.0811 16.5864 24.5476C16.3785 24.9428 16.195 25.351 16.037 25.7697C15.514 26.2135 15.023 26.6954 14.568 27.2118C13.2847 28.7173 12.3716 30.5148 11.9046 32.4545C11.5344 33.6765 10.5072 36.1207 10.2803 36.7562C10.1596 37.0724 10.0909 37.4069 10.0773 37.7461C10.0773 37.7461 9.51593 38.5526 9.27706 38.9681C9.01838 39.754 8.92477 40.5869 9.00236 41.4123C9.09685 42.5893 9.31304 43.7527 9.6473 44.883C9.82646 45.6529 11.8091 49.5147 11.8091 49.5147L11.9643 50.2479L12.1196 50.4068C12.1196 50.4068 12.7645 51.7755 13.3139 52.8509C13.8633 53.9264 14.0544 54.2441 14.0544 54.2441V55.5639C14.0544 55.5639 13.6961 55.9672 13.4334 56.2361C12.6504 57.2098 11.9473 58.248 11.3313 59.3402C10.7853 60.7276 10.3227 62.1478 9.94589 63.593C9.81451 64.0696 9.40844 65.7805 9.15762 66.6726C9.15762 66.6726 8.51268 68.2002 8.50073 68.2369C8.30464 68.6524 8.00364 69.0068 7.62886 69.2634C7.37008 69.4445 7.16379 69.6935 7.03169 69.9844C6.98318 70.1622 6.99051 70.3511 7.05267 70.5243C7.11483 70.6976 7.22866 70.8465 7.37805 70.9499C7.76567 71.1893 8.19607 71.3472 8.64406 71.4143C9.08481 71.4867 9.49781 71.6811 9.8384 71.9764C10.2206 72.2575 11.0327 73.284 11.391 73.4796C11.6484 73.6043 11.9219 73.6907 12.2032 73.7362C12.387 73.8799 12.5928 73.9914 12.8123 74.0662C12.9549 74.1021 13.1042 74.0983 13.2449 74.0554C13.3856 74.0124 13.5125 73.9317 13.6125 73.8218C13.674 73.6787 13.7104 73.5256 13.72 73.3696H13.5528H13.2423C13.1706 73.3696 13.0392 73.3696 13.0273 73.284C12.9359 73.1773 12.8596 73.058 12.8004 72.9296C12.7532 72.7978 12.6594 72.6888 12.5376 72.6241C12.4533 72.5489 12.3612 72.4833 12.2629 72.4286C12.2136 72.2792 12.141 72.1389 12.0479 72.0131C11.9637 71.9142 11.8507 71.8456 11.7255 71.8176L11.3552 71.2065C11.1087 70.6863 10.9281 70.136 10.8178 69.5689C10.8604 68.9618 10.9767 68.3624 11.1641 67.7847C11.2195 67.5635 11.2913 67.3469 11.3791 67.137L12.1554 65.6705C12.1554 65.6705 13.7439 62.8964 14.0305 62.4442C14.3172 61.9921 15.6907 59.3035 16.2042 58.6191C16.7178 57.9348 17.8763 56.7493 18.2346 56.2483C18.5324 55.8859 18.6935 55.4263 18.6885 54.9529C18.6885 54.5496 18.4496 53.7308 18.3421 52.8632C18.2346 51.9955 17.6852 48.9769 17.6016 48.3048C17.5751 47.9634 17.4816 47.6309 17.3269 47.3271C17.3269 47.3271 17.4344 47.3271 17.3269 47.0216C17.2194 46.7161 16.9567 45.934 17.0881 45.934C17.2194 45.934 18.4138 45.6773 19.4768 45.5796C20.7399 45.2851 21.975 44.8761 23.1673 44.3575L23.2389 44.1131C23.8559 43.9582 24.4623 43.7623 25.0543 43.5265C25.3982 43.3391 25.7632 43.1955 26.1412 43.0988L25.9381 43.2821C25.7638 43.5391 25.6233 43.8185 25.5201 44.1131C25.3768 44.5653 24.9349 47.4616 24.8155 48.2926C24.5646 49.322 24.2083 50.3215 23.7525 51.2744C23.5355 51.762 23.1979 52.1833 22.7731 52.4965C22.4948 52.6862 22.2752 52.9533 22.1401 53.2664C22.0829 53.4688 22.0902 53.6846 22.1611 53.8824C22.232 54.0802 22.3627 54.2498 22.5343 54.3663C22.9667 54.6324 23.4452 54.8109 23.9436 54.8918C24.4249 54.9818 24.8742 55.2011 25.2454 55.5273C25.7926 56.1209 26.3707 56.6839 26.9772 57.2137C27.2727 57.3533 27.5866 57.448 27.9088 57.4948C28.1176 57.6626 28.3515 57.7946 28.6015 57.8859C28.7618 57.9229 28.9288 57.9164 29.0859 57.8671C29.243 57.8178 29.3848 57.7274 29.4973 57.6048C29.5664 57.4423 29.6068 57.2685 29.6167 57.0915H29.4495C29.3323 57.0766 29.2165 57.052 29.1032 57.0182C29.0196 57.0182 28.8762 57.0182 28.8643 56.9327C28.76 56.8129 28.6753 56.6767 28.6135 56.5294C28.5418 56.3216 28.4104 56.2727 28.3029 56.1872C28.205 56.1236 28.1009 56.0704 27.9924 56.0283C27.941 55.86 27.86 55.7026 27.7536 55.5639C27.6582 55.4496 27.5276 55.372 27.3833 55.344C27.3833 55.344 27.1683 54.9529 26.9653 54.6352C26.6992 54.0492 26.4989 53.4342 26.3681 52.802C26.4063 52.1143 26.539 51.4355 26.7622 50.7856C26.9688 50.0418 27.2658 49.3274 27.6461 48.6592C28.2552 47.4371 29.2584 45.494 29.6167 44.6386C29.975 43.7831 30.3453 43.4165 30.5244 42.9766C30.7394 42.3519 30.8837 41.704 30.9544 41.0457C30.9976 40.4817 30.8682 39.9179 30.5841 39.4325C30.1677 39.0203 29.6462 38.7365 29.0793 38.6137C28.2178 38.4734 27.3478 38.3958 26.4756 38.3815C25.974 38.3815 24.4094 38.1738 24.4094 38.1738C24.6109 37.9759 24.7839 37.7495 24.923 37.5016C25.1379 37.1228 25.6634 36.1818 26.1173 35.5952C26.506 34.97 26.857 34.3211 27.1683 33.6521L25.974 32.43L25.4962 31.9901C25.4544 31.8596 25.394 31.7361 25.3171 31.6235C25.1977 31.4401 24.7438 30.5969 24.5885 30.4014C24.4333 30.2059 24.5049 29.497 24.5049 29.497C24.9133 29.7506 25.3361 29.9791 25.7709 30.1814C26.8391 30.7358 27.94 31.2215 29.0673 31.6357C29.3807 31.6343 29.6809 31.507 29.9034 31.2813C30.1303 31.0613 30.2856 30.3769 30.405 30.1936C30.5244 30.0103 31.9815 27.9817 32.1726 27.5662C32.3604 27.0513 32.516 26.5248 32.6384 25.9897L33.0206 25.2564C33.2336 25.0588 33.4332 24.8465 33.6178 24.621C33.863 24.3231 34.1306 24.0453 34.418 23.7899L35.3615 22.6779L35.5407 22.299C35.5459 22.0187 35.462 21.7443 35.3018 21.5169V21.5169ZM21.3638 34.9231C21.2085 35.253 21.0652 35.2286 20.8383 35.7663C20.6642 36.1486 20.5784 36.5667 20.5875 36.9884C20.5875 37.0861 20.683 37.4894 20.8502 37.6605C21.0175 37.8316 21.3638 38.2105 21.3638 38.2105C21.3638 38.2105 20.1695 38.3082 20.05 38.3082C19.9306 38.3082 18.796 38.6748 18.7482 38.6137C18.5103 38.5831 18.2695 38.5831 18.0316 38.6137C18.1531 38.468 18.2318 38.29 18.2585 38.1005C18.2585 37.8072 18.2585 37.6361 18.2585 37.5627C18.2652 37.4978 18.2652 37.4322 18.2585 37.3672C18.2585 37.3672 19.2857 36.2918 19.3215 36.1451C19.388 36.0041 19.4723 35.8726 19.5723 35.7541L19.7395 35.5463C20.0416 35.2571 20.374 35.003 20.7308 34.7886C20.9683 34.6262 21.2371 34.5178 21.5191 34.4709C21.5191 34.4709 21.5549 34.6053 21.3638 34.9231ZM29.2943 25.7819C28.8643 26.0019 28.2791 27.2362 28.2791 27.2362L27.9924 26.7718L27.3952 25.9897L27.5147 25.843C27.7075 25.8022 27.9032 25.7777 28.0999 25.7697C28.216 25.7799 28.3325 25.7544 28.4343 25.6964V25.5009V25.1465L28.924 25.0609L29.354 24.8165L30.3094 24.3277C30.3094 24.3277 29.7242 25.5742 29.342 25.7819H29.2943Z" fill="#1F4773"/>
<path d="M92.2959 52.1426C88.4382 52.1426 85.5718 50.9206 83.6966 48.3542C81.8215 45.7878 81.4154 42.6227 82.4306 38.712C83.4355 34.9039 85.6446 31.5434 88.7129 29.1554C91.6618 26.664 95.3632 25.295 99.1873 25.2814C100.866 25.1795 102.546 25.4648 104.103 26.1163C105.659 26.7678 107.053 27.7688 108.181 29.0454L102.854 34.1048C102.201 33.3226 101.387 32.6978 100.47 32.2753C99.5531 31.8527 98.5564 31.6428 97.551 31.6606C95.6871 31.6916 93.9003 32.4273 92.5348 33.7259C91.0145 35.0574 89.934 36.8375 89.4414 38.822C89.1493 39.6655 89.0449 40.5652 89.1358 41.4553C89.2267 42.3454 89.5107 43.2034 89.967 43.9669C90.4467 44.6485 91.0899 45.1921 91.8347 45.5453C92.5794 45.8985 93.4005 46.0493 94.2188 45.9834C95.6922 46.0114 97.1467 45.6404 98.4349 44.9079L99.247 41.7672H94.4696L95.8312 36.5367H107.142L104.108 48.1587C100.671 50.7109 96.5423 52.1035 92.2959 52.1426V52.1426Z" fill="white"/>
<path d="M106.903 51.6535L113.663 25.8433H120.494L117.962 35.4977H126.705L129.237 25.8433H136.021L129.273 51.6535H122.465L125.033 41.8769H116.29L113.722 51.6535H106.903Z" fill="white"/>
<path d="M139.604 51.6535L144.716 32.1003H137.347L138.983 25.8311H160.553L158.94 32.1003H151.547L146.424 51.6535H139.604Z" fill="white"/>
<path d="M70.4514 32.0148L72.0876 25.8066H52.4168L50.7925 32.0148H70.4514Z" fill="white"/>
<path d="M56.4417 36.4517H49.622L45.6568 51.6176H52.4646L54.8771 42.4032H66.51L68.0627 36.4639H56.4417V36.4517Z" fill="white"/>
<path d="M80.5315 32.0148L82.1678 25.8066H75.3123L73.688 32.0148H80.5315Z" fill="white"/>
<path d="M72.5295 36.4517L68.5523 51.6176H75.3959L79.3731 36.4517H72.5295Z" fill="white"/>
<path d="M262.621 58.9858H160.779L171.111 19.5127H273L262.621 58.9858ZM164.374 56.1261H260.471L269.357 22.3235H173.26L164.374 56.1261Z" fill="#27AAE1"/>
<path d="M206.32 51.8254L213.08 25.9907H220.246L223.483 35.9873L232.01 25.9907H239.176L232.416 51.8132H225.632L229.55 36.9894L220.616 47.096H220.473L216.89 37.0627L213.02 51.8132L206.32 51.8254Z" fill="#27AAE1"/>
<path d="M236.799 51.8254L243.512 25.9907H263.338L261.737 32.1011H248.707L247.692 36.0117H259.492L258.011 41.6577H246.211L245.136 45.7517H258.345L256.745 51.8621L236.799 51.8254Z" fill="#27AAE1"/>
<path d="M197.04 32.0146L198.604 26.002H177.047L175.47 32.0146H197.04Z" fill="#27AAE1"/>
<path d="M181.681 36.4517L177.656 51.8254H184.475L188.5 36.4517H181.681Z" fill="#27AAE1"/>
<path d="M207.013 32.0146L208.577 26.002H201.734L200.157 32.0146H207.013Z" fill="#27AAE1"/>
<path d="M198.999 36.4517L194.974 51.8254H201.817L205.842 36.4517H198.999Z" fill="#27AAE1"/>
</svg>
