<svg width="205" height="40" viewBox="0 0 205 40" fill="none" xmlns="http://www.w3.org/2000/svg">
<g clip-path="url(#clip0_2350_235)">
<path d="M24.2021 4.30615L15.9753 35.2152H112.879L121.106 4.30615H24.2021Z" fill="#1F4773"/>
<path d="M33.0029 28.421C33.0139 28.2297 33.0139 28.038 33.0029 27.8468C32.9086 27.5763 32.78 27.319 32.6203 27.0813L32.2376 26.5071C32.2376 26.4114 32.142 25.8372 32.0463 25.7415C31.9525 25.634 31.8335 25.5515 31.6999 25.5014C31.5663 25.4513 31.4224 25.4351 31.281 25.4545H30.6114L28.6982 23.0621C28.3338 22.5424 27.9171 22.0614 27.4546 21.6267L26.211 21.0525L24.8718 20.7655L24.3935 19.8085L24.0108 18.3731L24.2021 18.086L24.0108 17.4162L23.7238 17.0334V15.9808C23.7078 15.7555 23.6758 15.5317 23.6282 15.3109C23.5594 15.0464 23.4633 14.7899 23.3412 14.5454H23.7238L23.9152 14.2583L24.4891 13.8755C24.8235 13.6026 25.1138 13.2798 25.3501 12.9186L26.0197 11.8659L26.4023 11.1961C26.4023 11.1004 26.498 10.7176 26.1154 9.95206L24.9674 8.03819L24.6805 7.55972C24.7166 7.37005 24.7166 7.17523 24.6805 6.98556L24.4891 6.69848V6.12431L23.9152 5.55015C24.0108 5.83723 23.4369 4.97599 22.7672 4.40183L22.2889 4.11474C22.1812 3.83924 22.1167 3.54873 22.0976 3.2535C22.251 2.75838 22.3158 2.24005 22.2889 1.7224C22.2879 1.29135 22.1159 0.878343 21.8106 0.574074C21.6391 0.391132 21.4315 0.24568 21.2011 0.146869C20.9706 0.0480569 20.7221 -0.00197787 20.4714 -8.87834e-05C19.9953 -0.0209451 19.5254 0.11338 19.1322 0.382686L18.2712 1.05254C18.1756 1.24393 18.0799 1.24393 18.1756 1.33962L18.3669 1.62671C18.3919 1.78521 18.3919 1.94667 18.3669 2.10517C18.3457 2.27083 18.3793 2.43886 18.4625 2.58364V2.77503C18.3735 2.99031 18.3093 3.21505 18.2712 3.44489H18.7495V3.73197H19.2278C19.3235 3.82766 19.3235 4.01905 19.4191 4.01905H19.8018L19.6105 4.30613L19.4191 4.49752L19.2278 4.88029L19.0365 5.45446V5.64584L17.2189 6.88986L15.4971 7.46403H14.5405C14.51 7.20166 14.4457 6.94434 14.3491 6.69848C14.2016 6.51504 14.0012 6.38141 13.7752 6.3157H12.9142L12.4359 6.60278H11.7663C11.7409 6.59009 11.7116 6.588 11.6847 6.59698C11.6578 6.60595 11.6355 6.62525 11.6228 6.65063C11.6101 6.67601 11.608 6.70539 11.617 6.73231C11.626 6.75923 11.6453 6.78148 11.6707 6.79417H11.288C11.2548 6.81291 11.228 6.84114 11.2109 6.87524C11.1939 6.90934 11.1874 6.94775 11.1924 6.98556H11.0967C11.0967 6.98556 11.001 7.17695 11.0967 7.17695H11.1924V7.36833L11.6707 7.55972H12.3403L12.9142 7.75111L13.2969 8.03819L13.6795 8.22958H13.7752V8.42096H15.2101L15.4014 8.22958H18.1756L17.9842 8.70805C17.9322 8.9603 17.9002 9.21629 17.8886 9.4736C17.8996 9.56897 17.8996 9.6653 17.8886 9.76068V10.1435C17.8852 10.2072 17.8852 10.2711 17.8886 10.3348V11.1004H17.6016L17.3146 11.3875H13.3925L12.8186 11.8659L12.4359 12.0573H12.149V12.2487H11.4793C11.0017 12.5216 10.553 12.8422 10.1401 13.2057C9.94172 13.4915 9.81087 13.8187 9.75745 14.1626V14.5454L9.94877 14.9281L10.2357 15.4066L11.862 17.1291L14.3491 19.5214L15.1144 20.7655L16.071 22.2966L16.645 23.2535L16.932 23.9234V24.1147H17.2189C17.2189 24.1147 17.6973 24.0191 17.6973 23.732C17.7516 23.4797 17.7516 23.2187 17.6973 22.9664C17.6016 22.775 17.5059 22.0095 17.5059 21.9138C17.3768 21.578 17.3119 21.2209 17.3146 20.8612C17.4103 20.6698 17.6973 20.3827 17.6973 19.9999C17.7199 19.7605 17.6516 19.5214 17.5059 19.3301C17.2853 19.1694 17.0109 19.1008 16.7406 19.1387H16.2623C16.2623 19.1387 15.3057 17.4162 14.8274 16.5549L13.8708 15.2152L14.2535 14.8324L14.5405 15.0238L14.7318 15.3109L14.9231 15.5023L15.3057 15.3109C15.3057 15.3109 15.4014 15.5023 15.5927 15.4066L16.2623 15.2152L17.6973 14.8324H18.6539C18.7511 14.901 18.8193 15.0034 18.8452 15.1195C18.8047 15.2764 18.8047 15.4411 18.8452 15.598C18.9619 15.9284 19.1591 16.2244 19.4191 16.4592L20.4714 17.5119H21.0454C21.0454 17.5119 21.9063 19.043 22.1933 19.3301L22.7672 20.0956C22.8629 20.287 22.8629 20.5741 23.1499 20.6698L25.1588 21.531L28.1242 23.2535L29.5591 24.4018C29.6604 24.6095 29.7891 24.8026 29.9418 24.976L30.4201 25.3588L31.1853 26.4114C31.3454 26.6829 31.4738 26.9718 31.568 27.2726L31.855 27.7511C31.8769 27.9124 31.9089 28.0722 31.9506 28.2296L32.2376 28.421L32.4289 28.2296H32.7159C32.757 28.1954 32.7877 28.1504 32.8046 28.0997C32.8215 28.0489 32.8239 27.9945 32.8116 27.9425C32.8116 27.8468 32.8116 27.7511 32.8116 27.6554C32.818 27.5918 32.818 27.5277 32.8116 27.464H32.9072V27.2726H33.0029C33.0113 27.2581 33.0157 27.2416 33.0157 27.2248C33.0157 27.208 33.0113 27.1915 33.0029 27.1769V27.0813C33.0029 27.0813 33.0029 27.0813 33.0029 26.9856C33.0029 26.8899 33.0986 28.421 33.0029 28.421ZM23.1499 11.9616L22.6716 11.3875L22.9586 11.1004C23.0542 11.0047 23.0542 10.5262 23.1499 10.5262L23.6282 9.95206L23.9152 10.2391L24.4891 10.7176L24.1065 11.2918L23.6282 12.153L23.3412 12.7272L23.1499 11.9616Z" fill="#27AAE1"/>
<path d="M15.9753 11.0048C15.8295 10.6911 15.5972 10.4255 15.3057 10.2392C14.8274 9.95214 14.7317 9.85645 14.5404 9.85645H14.1578C14.0317 9.99562 13.9342 10.1582 13.8708 10.3349V10.622C13.8258 10.7786 13.7938 10.9386 13.7751 11.1005H13.6795C13.5221 10.9281 13.3251 10.7967 13.1055 10.7177H11.3836L10.9053 11.1005L9.9487 11.6746H9.75738C9.3648 11.4631 8.94692 11.3023 8.5138 11.1962H7.0789L6.60059 11.5789H6.12229C5.82215 11.7448 5.56115 11.9732 5.35701 12.2488L5.07003 12.9186L4.20909 13.6842C3.84469 14.0964 3.5241 14.5454 3.25248 15.0239C3.00902 15.5132 2.81668 16.0262 2.67852 16.555C2.4872 17.2249 1.91324 18.5646 1.72192 18.9474C1.65579 19.1314 1.62338 19.3259 1.62626 19.5215L1.14796 20.1914C0.975238 20.7851 0.975238 21.4158 1.14796 22.0096C1.20498 22.6596 1.33329 23.3014 1.5306 23.9234C1.62626 24.3062 2.77418 26.4115 2.77418 26.4115V26.7942H2.86984L3.53947 28.134L3.92211 28.8995V29.6651L3.53947 30.0478C3.10965 30.5891 2.72568 31.1653 2.39154 31.7703C2.08383 32.55 1.82817 33.3492 1.62626 34.1627L1.14796 35.8852L0.765317 36.7464C0.659363 36.9767 0.494335 37.1748 0.287016 37.3206L3.49022e-05 37.7033C-0.0391082 37.8064 -0.041446 37.9199 -0.00658306 38.0245C0.0282799 38.1291 0.098203 38.2185 0.191355 38.2775L0.860977 38.5646L1.5306 38.8517C1.80277 39.1532 2.09013 39.4406 2.39154 39.7129H2.86984L3.25248 39.9043C3.33346 39.9327 3.42059 39.9389 3.50475 39.922C3.5889 39.9052 3.66698 39.866 3.73079 39.8086C3.78145 39.7202 3.81397 39.6226 3.82645 39.5215H3.34815V39.3301L3.06116 39.2344H2.9655V39.043H2.67852L2.4872 38.6603C2.35933 38.385 2.26306 38.096 2.20022 37.799C2.22292 37.4732 2.28722 37.1516 2.39154 36.8421V36.4593L2.86984 35.4067L3.92211 33.5885C4.11343 33.3014 4.87871 31.866 5.16569 31.4832L6.31361 30.1435C6.47944 29.9573 6.58018 29.7222 6.60059 29.4737C6.60059 29.2823 6.50493 28.8038 6.40927 28.3253L5.93097 25.8373C5.90872 25.6345 5.84349 25.4388 5.73965 25.2631C5.73965 25.2631 5.83531 25.2631 5.73965 25.0718C5.64399 24.8804 5.54833 24.4976 5.64399 24.4976L6.98324 24.3062C7.70376 24.1478 8.40822 23.9236 9.08776 23.6363L10.14 23.3493L10.714 23.1579H10.6183L10.427 23.6363C10.3313 23.9234 10.14 25.4545 10.0444 25.933C9.90922 26.4935 9.71689 27.0386 9.4704 27.5598C9.34442 27.8317 9.14579 28.0635 8.89644 28.2297L8.5138 28.6124C8.48908 28.7165 8.49389 28.8253 8.52769 28.9268C8.5615 29.0282 8.62295 29.1182 8.70512 29.1866L9.4704 29.4737L10.2357 29.8564C10.5384 30.1912 10.8576 30.5106 11.1923 30.8134L11.6706 31.0048L12.0532 31.1962C12.1429 31.2132 12.2356 31.2043 12.3203 31.1704C12.4051 31.1365 12.4784 31.079 12.5315 31.0048C12.5801 30.9155 12.6125 30.8183 12.6272 30.7177H12.2446V30.5263L12.0532 30.3349H11.8619V30.0478H11.4793L11.2879 29.6651C11.1171 29.3315 10.9885 28.9779 10.9053 28.6124C10.9168 28.2228 10.9812 27.8364 11.0966 27.4641C11.2101 27.0638 11.3707 26.6783 11.5749 26.3158L12.7229 24.1148C12.9142 23.6363 13.1055 23.445 13.2012 23.1579C13.3374 22.8194 13.4337 22.4661 13.4881 22.1052C13.5163 21.8052 13.4494 21.5039 13.2968 21.244C13.0593 21.0083 12.7614 20.8427 12.4359 20.7655H9.85304L10.14 20.3828L10.8096 19.3301C11.0226 18.9915 11.2143 18.6399 11.3836 18.2775L10.714 17.6076L10.427 17.3206V17.1292L10.0444 16.4593C9.9487 16.3636 9.9487 15.9808 9.9487 15.9808L10.6183 16.3636L12.4359 17.1292L12.9142 16.9378C13.0297 16.757 13.1259 16.5645 13.2012 16.3636L14.1578 14.9282C14.2706 14.6471 14.3664 14.3595 14.4447 14.067L14.6361 13.6842L15.0187 13.3014L15.497 12.823L16.071 12.2488V12.0574C16.1454 11.9877 16.2029 11.902 16.2391 11.8068C16.2754 11.7115 16.2895 11.6092 16.2802 11.5077C16.271 11.4062 16.2388 11.3081 16.1859 11.221C16.1331 11.1338 16.061 11.0599 15.9753 11.0048ZM8.13116 18.4689C8.0355 18.6603 7.93984 18.6603 7.84418 18.9474C7.76275 19.1607 7.73007 19.3896 7.74852 19.6172C7.78259 19.7576 7.848 19.8885 7.93984 20L8.22682 20.2871H7.36588L6.60059 20.4785H6.21795C6.27493 20.393 6.30796 20.2939 6.31361 20.1914C6.31361 20 6.31361 19.9043 6.31361 19.9043C6.31762 19.8725 6.31762 19.8404 6.31361 19.8086L6.88758 19.1387V18.9474H6.98324L7.5572 18.5646L8.0355 18.3732C8.0355 18.3732 8.22682 18.2775 8.13116 18.4689ZM12.6272 13.3971C12.4359 13.4928 12.0532 14.1627 12.0532 14.1627L11.8619 13.8756L11.4793 13.4928H12.0532V13.3014H12.5315L13.1055 13.0143C13.1055 13.0143 12.8185 13.3014 12.6272 13.3971Z" fill="#1F4773"/>
<path d="M60.266 29.9522C57.1411 29.9522 54.8452 28.9633 53.3785 26.9857C51.9117 25.008 51.5609 22.4881 52.3262 19.4259C53.1443 16.4453 54.9274 13.8203 57.3962 11.9617C59.7597 9.99077 62.7373 8.90764 65.8143 8.89954C67.1557 8.82647 68.4965 9.05501 69.7381 9.56837C70.9796 10.0817 72.0904 10.8668 72.9888 11.866L68.6841 15.7895C68.1655 15.1815 67.5197 14.6949 66.7924 14.3642C66.0651 14.0335 65.274 13.8667 64.475 13.8756C62.9805 13.9007 61.5485 14.4805 60.4573 15.5024C59.235 16.5545 58.3665 17.9579 57.9701 19.5215C57.7306 20.1777 57.6407 20.8791 57.7069 21.5744C57.7731 22.2698 57.9938 22.9416 58.3528 23.5407C58.7459 24.0715 59.2697 24.4914 59.8732 24.7597C60.4766 25.0281 61.1393 25.1355 61.7966 25.0718C62.9687 25.0828 64.1232 24.7858 65.1447 24.2105L65.8143 21.7225H61.9879L63.0401 17.6077H72.1279L69.7364 26.7943C66.9856 28.8083 63.6746 29.9124 60.266 29.9522Z" fill="white"/>
<path d="M72.0322 29.5693L77.3892 9.28223H82.8418L80.833 16.842H87.8162L89.9207 9.28223H95.3733L89.9207 29.5693H84.4681L86.5726 21.9138H79.4937L77.3892 29.5693H72.0322Z" fill="white"/>
<path d="M98.2432 29.5693L102.357 14.2583H96.4257L97.7649 9.37793H115.079L113.74 14.2583H107.809L103.696 29.5693H98.2432Z" fill="white"/>
<path d="M42.8558 14.1626L44.0994 9.28223H28.3155L27.0719 14.1626H42.8558Z" fill="white"/>
<path d="M31.5679 17.6077H26.1153L22.9585 29.5694H28.4111L30.3243 22.2967H39.6034L40.847 17.7034H31.5679V17.6077Z" fill="white"/>
<path d="M50.8914 14.1626L52.2306 9.28223H46.6823L45.4387 14.1626H50.8914Z" fill="white"/>
<path d="M44.4821 17.6077L41.3253 29.5694H46.778L49.9347 17.6077H44.4821Z" fill="white"/>
<path d="M196.773 35.2152H115.175L123.402 4.30615H205L196.773 35.2152ZM118.045 33.0143H195.051L202.13 6.6028H125.124L118.045 33.0143Z" fill="#27AAE1"/>
<path d="M151.622 29.665L157.074 9.47363H162.814L165.397 17.3205L172.189 9.47363H177.928L172.571 29.665H167.119L170.275 18.0861L163.101 26.0287H163.005L160.135 18.1818L156.979 29.665H151.622Z" fill="#27AAE1"/>
<path d="M176.015 29.665L181.468 9.47363H197.347L196.104 14.2583H185.581L184.72 17.3205H194.19L193.042 21.7224H183.572L182.711 24.8803H193.329L192.086 29.665H176.015Z" fill="#27AAE1"/>
<path d="M144.16 14.1626L145.499 9.47363H128.185L126.941 14.1626H144.16Z" fill="#27AAE1"/>
<path d="M131.916 17.6077L128.663 29.6651H134.116L137.368 17.6077H131.916Z" fill="#27AAE1"/>
<path d="M152.196 14.1626L153.439 9.47363H147.986L146.647 14.1626H152.196Z" fill="#27AAE1"/>
<path d="M145.786 17.6077L142.534 29.6651H147.987L151.239 17.6077H145.786Z" fill="#27AAE1"/>
</g>
<defs>
<clipPath id="clip0_2350_235">
<rect width="205" height="40" fill="white"/>
</clipPath>
</defs>
</svg>
